<svg width="123" height="314" viewBox="0 0 123 314" fill="none" xmlns="http://www.w3.org/2000/svg">
<ellipse cx="5.48438" cy="6.04198" rx="5.48438" ry="6.04198" fill="#000033" fill-opacity="0.15"/>
<ellipse cx="5.48438" cy="39.5052" rx="5.48438" ry="6.04198" fill="#000033" fill-opacity="0.15"/>
<ellipse cx="5.48438" cy="72.9685" rx="5.48438" ry="6.04198" fill="#000033" fill-opacity="0.15"/>
<ellipse cx="5.48438" cy="106.432" rx="5.48438" ry="6.04198" fill="#000033" fill-opacity="0.15"/>
<ellipse cx="5.48438" cy="139.895" rx="5.48438" ry="6.04198" fill="#000033" fill-opacity="0.15"/>
<ellipse cx="5.48438" cy="173.358" rx="5.48438" ry="6.04198" fill="#000033" fill-opacity="0.15"/>
<ellipse cx="5.48438" cy="206.822" rx="5.48438" ry="6.04198" fill="#000033" fill-opacity="0.15"/>
<ellipse cx="5.48438" cy="240.285" rx="5.48438" ry="6.04198" fill="#000033" fill-opacity="0.15"/>
<ellipse cx="5.48438" cy="273.748" rx="5.48438" ry="6.04198" fill="#000033" fill-opacity="0.15"/>
<ellipse cx="5.48438" cy="307.211" rx="5.48438" ry="6.04198" fill="#000033" fill-opacity="0.15"/>
<ellipse cx="24.0469" cy="6.04198" rx="5.48438" ry="6.04198" fill="#000033" fill-opacity="0.15"/>
<ellipse cx="24.0469" cy="39.5052" rx="5.48438" ry="6.04198" fill="#000033" fill-opacity="0.15"/>
<ellipse cx="24.0469" cy="72.9685" rx="5.48438" ry="6.04198" fill="#000033" fill-opacity="0.15"/>
<ellipse cx="24.0469" cy="106.432" rx="5.48438" ry="6.04198" fill="#000033" fill-opacity="0.15"/>
<ellipse cx="24.0469" cy="139.895" rx="5.48438" ry="6.04198" fill="#000033" fill-opacity="0.15"/>
<ellipse cx="24.0469" cy="173.358" rx="5.48438" ry="6.04198" fill="#000033" fill-opacity="0.15"/>
<ellipse cx="24.0469" cy="206.822" rx="5.48438" ry="6.04198" fill="#000033" fill-opacity="0.15"/>
<ellipse cx="24.0469" cy="240.285" rx="5.48438" ry="6.04198" fill="#000033" fill-opacity="0.15"/>
<ellipse cx="24.0469" cy="273.748" rx="5.48438" ry="6.04198" fill="#000033" fill-opacity="0.15"/>
<ellipse cx="24.0469" cy="307.211" rx="5.48438" ry="6.04198" fill="#000033" fill-opacity="0.15"/>
<ellipse cx="42.6094" cy="6.04198" rx="5.48438" ry="6.04198" fill="#000033" fill-opacity="0.15"/>
<ellipse cx="42.6094" cy="39.5052" rx="5.48438" ry="6.04198" fill="#000033" fill-opacity="0.15"/>
<ellipse cx="42.6094" cy="72.9685" rx="5.48438" ry="6.04198" fill="#000033" fill-opacity="0.15"/>
<ellipse cx="42.6094" cy="106.432" rx="5.48438" ry="6.04198" fill="#000033" fill-opacity="0.15"/>
<ellipse cx="42.6094" cy="139.895" rx="5.48438" ry="6.04198" fill="#000033" fill-opacity="0.15"/>
<ellipse cx="42.6094" cy="173.358" rx="5.48438" ry="6.04198" fill="#000033" fill-opacity="0.15"/>
<ellipse cx="42.6094" cy="206.822" rx="5.48438" ry="6.04198" fill="#000033" fill-opacity="0.15"/>
<ellipse cx="42.6094" cy="240.285" rx="5.48438" ry="6.04198" fill="#000033" fill-opacity="0.15"/>
<ellipse cx="42.6094" cy="273.748" rx="5.48438" ry="6.04198" fill="#000033" fill-opacity="0.15"/>
<ellipse cx="42.6094" cy="307.211" rx="5.48438" ry="6.04198" fill="#000033" fill-opacity="0.15"/>
<ellipse cx="61.1719" cy="6.04198" rx="5.48438" ry="6.04198" fill="#000033" fill-opacity="0.15"/>
<ellipse cx="61.1719" cy="39.5052" rx="5.48438" ry="6.04198" fill="#000033" fill-opacity="0.15"/>
<ellipse cx="61.1719" cy="72.9685" rx="5.48438" ry="6.04198" fill="#000033" fill-opacity="0.15"/>
<ellipse cx="61.1719" cy="106.432" rx="5.48438" ry="6.04198" fill="#000033" fill-opacity="0.15"/>
<ellipse cx="61.1719" cy="139.895" rx="5.48438" ry="6.04198" fill="#000033" fill-opacity="0.15"/>
<ellipse cx="61.1719" cy="173.358" rx="5.48438" ry="6.04198" fill="#000033" fill-opacity="0.15"/>
<ellipse cx="61.1719" cy="206.822" rx="5.48438" ry="6.04198" fill="#000033" fill-opacity="0.15"/>
<ellipse cx="61.1719" cy="240.285" rx="5.48438" ry="6.04198" fill="#000033" fill-opacity="0.15"/>
<ellipse cx="61.1719" cy="273.748" rx="5.48438" ry="6.04198" fill="#000033" fill-opacity="0.15"/>
<ellipse cx="61.1719" cy="307.211" rx="5.48438" ry="6.04198" fill="#000033" fill-opacity="0.15"/>
<ellipse cx="79.7344" cy="6.04198" rx="5.48438" ry="6.04198" fill="#000033" fill-opacity="0.15"/>
<ellipse cx="79.7344" cy="39.5052" rx="5.48438" ry="6.04198" fill="#000033" fill-opacity="0.15"/>
<ellipse cx="79.7344" cy="72.9685" rx="5.48438" ry="6.04198" fill="#000033" fill-opacity="0.15"/>
<ellipse cx="79.7344" cy="106.432" rx="5.48438" ry="6.04198" fill="#000033" fill-opacity="0.15"/>
<ellipse cx="79.7344" cy="139.895" rx="5.48438" ry="6.04198" fill="#000033" fill-opacity="0.15"/>
<ellipse cx="79.7344" cy="173.358" rx="5.48438" ry="6.04198" fill="#000033" fill-opacity="0.15"/>
<ellipse cx="79.7344" cy="206.822" rx="5.48438" ry="6.04198" fill="#000033" fill-opacity="0.15"/>
<ellipse cx="79.7344" cy="240.285" rx="5.48438" ry="6.04198" fill="#000033" fill-opacity="0.15"/>
<ellipse cx="79.7344" cy="273.748" rx="5.48438" ry="6.04198" fill="#000033" fill-opacity="0.15"/>
<ellipse cx="79.7344" cy="307.211" rx="5.48438" ry="6.04198" fill="#000033" fill-opacity="0.15"/>
<ellipse cx="98.2969" cy="6.04198" rx="5.48438" ry="6.04198" fill="#000033" fill-opacity="0.15"/>
<ellipse cx="98.2969" cy="39.5052" rx="5.48438" ry="6.04198" fill="#000033" fill-opacity="0.15"/>
<ellipse cx="98.2969" cy="72.9685" rx="5.48438" ry="6.04198" fill="#000033" fill-opacity="0.15"/>
<ellipse cx="98.2969" cy="106.432" rx="5.48438" ry="6.04198" fill="#000033" fill-opacity="0.15"/>
<ellipse cx="98.2969" cy="139.895" rx="5.48438" ry="6.04198" fill="#000033" fill-opacity="0.15"/>
<ellipse cx="98.2969" cy="173.358" rx="5.48438" ry="6.04198" fill="#000033" fill-opacity="0.15"/>
<ellipse cx="98.2969" cy="206.822" rx="5.48438" ry="6.04198" fill="#000033" fill-opacity="0.15"/>
<ellipse cx="98.2969" cy="240.285" rx="5.48438" ry="6.04198" fill="#000033" fill-opacity="0.15"/>
<ellipse cx="98.2969" cy="273.748" rx="5.48438" ry="6.04198" fill="#000033" fill-opacity="0.15"/>
<ellipse cx="98.2969" cy="307.211" rx="5.48438" ry="6.04198" fill="#000033" fill-opacity="0.15"/>
<ellipse cx="116.859" cy="6.04198" rx="5.48438" ry="6.04198" fill="#000033" fill-opacity="0.15"/>
<ellipse cx="116.859" cy="39.5052" rx="5.48438" ry="6.04198" fill="#000033" fill-opacity="0.15"/>
<ellipse cx="116.859" cy="72.9685" rx="5.48438" ry="6.04198" fill="#000033" fill-opacity="0.15"/>
<ellipse cx="116.859" cy="106.432" rx="5.48438" ry="6.04198" fill="#000033" fill-opacity="0.15"/>
<ellipse cx="116.859" cy="139.895" rx="5.48438" ry="6.04198" fill="#000033" fill-opacity="0.15"/>
<ellipse cx="116.859" cy="173.358" rx="5.48438" ry="6.04198" fill="#000033" fill-opacity="0.15"/>
<ellipse cx="116.859" cy="206.822" rx="5.48438" ry="6.04198" fill="#000033" fill-opacity="0.15"/>
<ellipse cx="116.859" cy="240.285" rx="5.48438" ry="6.04198" fill="#000033" fill-opacity="0.15"/>
<ellipse cx="116.859" cy="273.748" rx="5.48438" ry="6.04198" fill="#000033" fill-opacity="0.15"/>
<ellipse cx="116.859" cy="307.211" rx="5.48438" ry="6.04198" fill="#000033" fill-opacity="0.15"/>
</svg>
